<?xml version="1.0" encoding="UTF-8"?>
<svg width="67px" height="40px" viewBox="0 0 67 40" version="1.1" xmlns="http://www.w3.org/2000/svg" xmlns:xlink="http://www.w3.org/1999/xlink">
    <!-- Generator: Sketch 43.2 (39069) - http://www.bohemiancoding.com/sketch -->
    <title>Untitled</title>
    <desc>Created with Sketch.</desc>
    <defs></defs>
    <g id="Page-1" stroke="none" stroke-width="1" fill="none" fill-rule="evenodd">
        <path d="M46.4393662,32.4913625 C45.7371388,29.437113 46.308103,25.8750725 47.5661382,23.3124081 C49.3735307,19.8366535 53.0578306,17.1255648 57.1592211,17.4731403 C58.2714626,17.6121705 58.2714626,19.3500478 57.1592211,19.2110176 C51.4589835,18.6548969 47.9137137,24.4246496 47.9137137,29.4992514 C47.9137137,32.0017948 48.5393495,35.2690042 51.2504382,36.1727004 C52.7797702,36.6593061 54.3786174,36.3812457 55.560374,35.4080344 C55.8384343,35.1994891 56.0469796,34.9214287 56.2555249,34.7128834 C55.6298891,34.2957929 55.0042532,33.7396721 54.5176476,33.1140363 C52.3626797,30.3334326 51.3199533,26.2320421 52.7102551,22.8953176 C53.8224966,20.3232591 57.0201909,19.0024724 59.314189,20.948895 C61.3301267,22.6867723 61.3301267,25.9539817 60.9825512,28.3174949 C60.7044909,30.2639175 60.0093399,32.3493703 58.9666135,34.0872476 C60.9825512,34.7823985 63.2765493,34.5043382 64.527821,32.6274306 C65.1534568,31.7237344 66.6827889,32.5579156 65.987638,33.4616118 C64.1802455,36.2422155 60.7044909,36.7288212 57.854372,35.5470646 C57.5763117,35.89464 57.2982513,36.2422155 56.9506758,36.5202759 C54.5871627,38.4666985 50.8333476,38.883789 48.4698344,36.4507608 C47.9124283,35.868581 47.4653815,35.1981137 47.1176819,34.4676762 C45.8224694,36.0534736 44.1877341,37.5850766 42.213476,38.0496079 C40.4060836,38.5362136 38.5986912,38.1886381 37.5559648,36.5202759 C36.7912988,35.1994891 36.4437233,33.600642 35.6790573,32.2798552 C34.6363309,30.5419778 33.1069988,30.4724628 31.2300913,30.9590684 C30.9520309,32.0713099 30.6739705,33.1140363 30.4654253,34.2262778 C30.3959102,34.7823985 30.3263951,35.3385193 30.1873649,35.89464 C30.1178498,36.589791 30.1178498,37.7020325 29.7007592,38.2581532 C29.2836687,38.7447589 28.3799725,38.4666985 28.2409423,37.8410626 C28.1019121,37.4934872 28.2409423,37.0068815 28.3104574,36.589791 C28.4494876,35.6860948 28.5885177,34.8519136 28.7275479,34.0177325 C28.7275479,33.9482174 28.797063,33.8787023 28.797063,33.8091872 C28.8665781,33.0445212 29.0056083,32.3493703 29.0751234,31.6542193 C29.5617291,28.38701 30.0483347,25.1198006 30.6044555,21.9221063 C31.2300913,18.3768365 31.9252422,14.8315668 32.8289384,11.3558121 C33.5936045,8.57520835 34.4277856,5.65557443 35.8180875,3.15303107 C36.7912988,1.55418392 38.3901459,-0.461753784 40.4755987,0.0943669623 C43.2562024,0.859032989 42.8391119,4.05672728 42.213476,6.21169518 C41.1707496,10.0350253 39.224327,13.6498102 37.2779044,17.0560497 C36.5827535,18.3073214 35.8876025,19.5585931 35.1229365,20.8098648 C36.235178,20.0451988 37.9730553,19.3500478 39.1548119,20.253744 C42.0049308,22.2696817 39.3633572,25.5368911 37.4864497,27.0662232 C36.5827535,27.8308892 35.5400271,28.5260401 34.5668158,29.151676 C35.0534214,29.2907062 35.5400271,29.5687665 35.9571176,29.916342 C37.1388742,30.8895533 37.694995,32.3493703 38.1816006,33.7396721 C38.5986912,34.7823985 39.0852968,36.4507608 40.5451138,36.5202759 C42.9781421,36.589791 44.9940798,34.5043382 46.3148666,32.6274306 C46.3541014,32.5764254 46.3957721,32.5311777 46.4393662,32.4913625 Z M13.5732576,12.5375687 C13.5732576,12.815629 13.5037425,13.0936894 13.5037425,13.3717498 C13.3647123,14.2059309 13.2256821,14.9705969 13.0171368,15.8047781 C11.5573199,23.6599836 10.0279878,31.9322797 8.84623124,39.3703947 C8.63768596,40.4826362 6.96932372,39.9960305 7.177869,38.883789 C7.94253502,34.365308 9.05477652,27.5528288 10.0975029,21.9221063 C9.88895764,22.2001666 9.61089726,22.478227 9.33283689,22.7562874 C6.41320297,25.5368911 1.13005588,25.5368911 0.156844569,20.8793799 C-0.607821458,16.9170196 1.47763134,12.1204781 5.23144638,10.3826008 C7.73398974,9.20084419 11.2792595,9.20084419 12.8085916,11.7033876 C13.2256821,11.7729026 13.5732576,12.050963 13.5732576,12.5375687 Z M9.88895764,19.0719874 C10.3755633,18.0987761 10.8621689,16.9170196 11.2792595,15.735263 L11.6963501,13.4412649 C11.626835,13.3022347 11.5573199,13.2327196 11.5573199,13.1632045 C10.7231388,10.3826008 6.89980862,11.2167819 5.16193129,12.4680536 C2.58987284,14.275446 0.504420035,18.724412 2.31181246,21.713561 C3.28502377,23.3124081 5.30096148,23.3819232 6.83029353,22.478227 C8.2205954,21.713561 9.1938067,20.4622893 9.88895764,19.0719874 Z M27.6848215,12.5375687 C27.6848215,12.815629 27.6153064,13.0936894 27.6153064,13.3717498 C27.4762763,14.2059309 27.3372461,14.9705969 27.1287008,15.8047781 C25.6688838,23.6599836 24.1395518,31.9322797 22.9577952,39.3703947 C22.7492499,40.4826362 21.0808877,39.9960305 21.2894329,38.883789 C22.054099,34.365308 23.1663405,27.5528288 24.2090669,21.9221063 C24.0005216,22.2001666 23.7224612,22.478227 23.4444008,22.7562874 C20.5247669,25.5368911 15.2416198,25.5368911 14.2684085,20.8793799 C13.5037425,16.9170196 15.5891953,12.1204781 19.3430103,10.3826008 C21.8455537,9.20084419 25.3908235,9.20084419 26.9201555,11.7033876 C27.3372461,11.7729026 27.6848215,12.050963 27.6848215,12.5375687 Z M24.0005216,19.0719874 C24.4871272,18.0987761 24.9737329,16.9170196 25.3908235,15.735263 L25.807914,13.4412649 C25.7383989,13.3022347 25.6688838,13.2327196 25.6688838,13.1632045 C24.8347027,10.3826008 21.0113726,11.2167819 19.2734952,12.4680536 C16.7014368,14.275446 14.615984,18.724412 16.4233764,21.713561 C17.3965877,23.3124081 19.4125254,23.3819232 20.9418575,22.478227 C22.3321593,21.713561 23.3053707,20.4622893 24.0005216,19.0719874 Z M38.3206308,21.713561 C37.2083893,21.0879252 35.5400271,22.5477421 34.8448761,23.242893 C33.3850592,24.7722251 32.6203932,26.7186477 31.9252422,28.6650703 C33.0374837,28.0394345 34.1497252,27.4137986 35.1924516,26.6491326 C36.1656629,25.8844666 37.2779044,25.0502855 38.0425704,24.0075591 C38.3901459,23.5209534 39.1548119,22.2001666 38.3206308,21.713561 Z M34.9839063,10.1740555 C33.8716648,13.8583554 33.1069988,17.6121705 32.4118479,21.4355006 C32.4118479,21.6440459 32.3423328,21.8525912 32.3423328,22.0611365 C34.9839063,17.959746 37.4169346,13.6498102 39.2938421,9.20084419 C39.8499629,7.88005742 40.4060836,6.48975555 40.7536591,5.02993859 C40.8926893,4.12624238 41.1012345,3.15303107 40.7536591,2.31884995 C40.3365685,1.20660846 39.0157817,1.8322443 38.3206308,2.59691032 C36.5132384,4.61284803 35.7485724,7.60199704 34.9839063,10.1740555 Z M54.3091023,29.0126458 C54.865223,30.7505231 55.8384343,32.3493703 57.3677664,33.3920967 C58.549523,31.5847042 59.1751588,29.4297364 59.3837041,27.4137986 C59.5227343,25.6759213 59.4532192,21.8525912 56.9506758,21.7830761 C53.4054061,21.6440459 53.5444363,26.7186477 54.3091023,29.0126458 Z" id="99ko" fill="#FF0000"></path>
    </g>
</svg>